Coordinates
version=1
nRows=9
nColumns=63
inDegrees=yes

Units are S.I. units (second, meters, Newtons, ...)
If the header above contains a line with 'inDegrees', this indicates whether rotational values are in degrees (yes) or radians (no).

endheader
time	pelvis_tilt	pelvis_list	pelvis_rotation	pelvis_tx	pelvis_ty	pelvis_tz	hip_flexion_r	hip_adduction_r	hip_rotation_r	knee_angle_r	knee_angle_r_beta	ankle_angle_r	subtalar_angle_r	mtp_angle_r	hip_flexion_l	hip_adduction_l	hip_rotation_l	knee_angle_l	knee_angle_l_beta	ankle_angle_l	subtalar_angle_l	mtp_angle_l	L5_S1_Flex_Ext	L5_S1_Lat_Bending	L5_S1_axial_rotation	L4_L5_Flex_Ext	L4_L5_Lat_Bending	L4_L5_axial_rotation	L3_L4_Flex_Ext	L3_L4_Lat_Bending	L3_L4_axial_rotation	L2_L3_Flex_Ext	L2_L3_Lat_Bending	L2_L3_axial_rotation	L1_L2_Flex_Ext	L1_L2_Lat_Bending	L1_L2_axial_rotation	L1_T12_Flex_Ext	L1_T12_Lat_Bending	L1_T12_axial_rotation	Abs_r3	Abs_r2	Abs_r1	Abs_t1	Abs_t2	neck_flexion	neck_bending	neck_rotation	arm_flex_r	arm_add_r	arm_rot_r	elbow_flex_r	pro_sup_r	wrist_flex_r	wrist_dev_r	arm_flex_l	arm_add_l	arm_rot_l	elbow_flex_l	pro_sup_l	wrist_flex_l	wrist_dev_l
      5.23333333	      0.74949439	     -4.74482343	     95.09686356	      0.21794753	      0.98762713	      0.27829849	      4.79453274	      0.27623767	    -27.87278248	      6.67419069	      0.11648660	     14.79915263	      7.20433545	      0.00000000	      3.94982387	     -0.43219120	     11.04310871	      1.02440881	      0.01787931	     14.84742868	     -8.77960453	      0.00000000	     -0.16293516	      0.24941324	     -1.90713411	     -0.30258689	      0.33171961	     -2.02632999	     -0.26768618	      0.60642335	     -2.02632999	     -0.18621860	      0.60642335	     -1.66874234	     -0.15130159	      0.50860347	     -1.54954646	     -0.09310115	      0.38634111	     -1.43035058	     -1.16382957	      2.82141243	    -10.60690777	      0.00000000	      0.00000000	     12.43695921	     -1.71586243	     11.01035362	     -3.06514544	    -22.20629149	     30.84692449	     84.78337087	     86.22207893	     -3.31583663	     17.18464796	    -13.84784172	    -14.31489405	     16.08717369	     91.98397895	     88.93312586	     -9.12541804	     13.66073644
      5.25000000	      0.55606514	     -4.94489132	     95.14010327	      0.21800705	      0.98766946	      0.27860363	      4.95008786	      0.07176224	    -27.90016755	      6.53812434	      0.11411180	     14.75397272	      7.24533812	      0.00000000	      4.12423759	     -0.21477263	     11.05410889	      0.94955535	      0.01657287	     14.67479717	     -8.74142533	      0.00000000	     -0.16066074	      0.20991716	     -1.95636989	     -0.29836307	      0.27918983	     -2.07864301	     -0.26394954	      0.51039259	     -2.07864301	     -0.18361916	      0.51039259	     -1.71182365	     -0.14918957	      0.42806308	     -1.58955054	     -0.09180155	      0.32516168	     -1.46727742	     -1.14758363	      2.37462493	    -10.88074241	      0.00000000	      0.00000000	     12.16860625	     -1.84753716	     10.99730080	     -2.14230277	    -21.87816984	     31.13204817	     87.07695158	     85.45703047	     -3.49078326	     17.28164370	    -13.80796837	    -14.40127612	     16.60910195	     92.53940043	     89.07083788	     -8.88101745	     13.19316810
      5.26666667	      0.42096095	     -5.02589885	     95.25421787	      0.21812557	      0.98798413	      0.27882935	      5.03628912	     -0.09885781	    -28.12263923	      6.57265427	      0.11471446	     14.66256973	      7.33250121	      0.00000000	      4.19434496	     -0.08813457	     11.13449607	      0.93633275	      0.01634209	     14.48974678	     -8.56545791	      0.00000000	     -0.16909304	      0.17366283	     -2.05189043	     -0.31402268	      0.23097156	     -2.18013358	     -0.27780296	      0.42224381	     -2.18013358	     -0.19325644	      0.42224381	     -1.79540413	     -0.15701980	      0.35413324	     -1.66716098	     -0.09661976	      0.26900372	     -1.53891782	     -1.20781468	      1.96450867	    -11.41199902	      0.00000000	      0.00000000	     12.01948452	     -1.97080891	     10.79236259	     -1.05498287	    -21.51651986	     31.89922224	     89.79024640	     82.96902845	     -4.79339387	     18.35639186	    -14.03729476	    -14.45938665	     16.91914909	     92.88878287	     89.19928684	     -8.17896643	     10.30294594
      5.28333333	      0.34890418	     -5.06088240	     95.25030849	      0.21831248	      0.98831931	      0.27875234	      5.02406640	     -0.16152390	    -28.25094879	      6.49747255	      0.11340229	     14.50478446	      7.44827600	      0.00000000	      4.16704275	     -0.03561056	     11.06210363	      0.89247704	      0.01557666	     14.43530072	     -8.40246085	      0.00000000	     -0.17000101	      0.14473161	     -2.12933860	     -0.31570887	      0.19249304	     -2.26242226	     -0.27929465	      0.35190043	     -2.26242226	     -0.19429415	      0.35190043	     -1.86317127	     -0.15786293	      0.29513669	     -1.73008761	     -0.09713858	      0.22418926	     -1.59700395	     -1.21430019	      1.63723287	    -11.84274249	      0.00000000	      0.00000000	     12.10836730	     -1.87858797	     10.55488809	     -0.10843031	    -21.18332957	     32.41191342	     92.65880397	     82.23094032	     -4.71696722	     18.06899377	    -14.32520322	    -14.44658913	     17.18091974	     93.41332467	     89.30415783	     -7.83379452	      7.12637549
      5.30000000	      0.32425548	     -5.05429523	     95.30631553	      0.21827961	      0.98878631	      0.27825985	      4.92643128	     -0.16778285	    -28.40093307	      6.39433350	      0.11160217	     14.36331827	      7.52856705	      0.00000000	      4.07439828	     -0.03439152	     10.90363588	      0.84955399	      0.01482751	     14.44464311	     -7.94595961	      0.00000000	     -0.15384153	      0.12673406	     -2.21389224	     -0.28569910	      0.16855630	     -2.35226051	     -0.25274624	      0.30814119	     -2.35226051	     -0.17582548	      0.30814119	     -1.93715571	     -0.14285724	      0.25843609	     -1.79878745	     -0.08790505	      0.19631105	     -1.66041918	     -1.09887463	      1.43364100	    -12.31300450	      0.00000000	      0.00000000	     12.05491285	     -1.74998623	     10.60370757	      0.70800385	    -20.81075566	     32.56811889	     95.67550111	     82.87295689	     -4.01412749	     17.34950236	    -14.53079132	    -14.35231132	     17.61261306	     93.66906772	     89.35562662	     -8.84237501	      2.04295753
      5.31666667	      0.26594294	     -4.97062126	     95.33647460	      0.21827981	      0.98940659	      0.27785439	      4.76290772	     -0.18753793	    -28.39437138	      6.28422901	      0.10968049	     14.22727478	      7.49310445	      0.00000000	      3.90002850	      0.00232043	     10.67769429	      0.80386546	      0.01403010	     14.43040133	     -7.55005173	      0.00000000	     -0.14030959	      0.10340216	     -2.28885543	     -0.26056893	      0.13752488	     -2.43190890	     -0.23051462	      0.25141202	     -2.43190890	     -0.16035983	      0.25141202	     -2.00274850	     -0.13029148	      0.21085769	     -1.85969504	     -0.08017290	      0.16016995	     -1.71664157	     -1.00221734	      1.16970595	    -12.72992725	      0.00000000	      0.00000000	     11.98989867	     -1.28294482	     10.53188449	      1.60058803	    -20.22747356	     32.32974639	     98.44960316	     84.12304409	     -3.17156574	     16.01495429	    -14.55808654	    -14.18660367	     17.61458118	     94.14540355	     89.37637769	     -9.72708347	     -2.51963814
      5.33333333	      0.31754284	     -4.89049177	     95.22710862	      0.21830813	      0.98999441	      0.27738177	      4.62246214	     -0.07597337	    -28.12412104	      6.12716293	      0.10693917	     14.08827317	      7.53449182	      0.00000000	      3.73295173	     -0.08385199	     10.34070284	      0.78124115	      0.01363523	     14.45036310	     -7.09683464	      0.00000000	     -0.12087826	      0.09932452	     -2.32151413	     -0.22448301	      0.13210161	     -2.46660876	     -0.19859089	      0.24149763	     -2.46660876	     -0.13815176	      0.24149763	     -2.03132486	     -0.11224755	      0.20254255	     -1.88623023	     -0.06906984	      0.15385368	     -1.74113560	     -0.86342131	      1.12357879	    -12.91156513	      0.00000000	      0.00000000	     11.96660301	     -0.65786876	     10.97797961	      2.54554417	    -19.50017902	     31.70201188	    100.85132163	     85.10285624	     -2.63102742	     14.32306518	    -14.41363631	    -13.91871791	     17.42721533	     94.94602587	     89.35877270	    -11.20125891	     -6.37396972
      5.35000000	      0.37236645	     -4.81296269	     95.00537297	      0.21835480	      0.99063241	      0.27710171	      4.54455482	      0.02160146	    -27.59715561	      6.03097316	      0.10526034	     14.06212810	      7.63211668	      0.00000000	      3.58181064	     -0.17246488	      9.84348623	      0.77995569	      0.01361279	     14.51968603	     -6.52483149	      0.00000000	     -0.09834461	      0.10363512	     -2.30179419	     -0.18263577	      0.13783471	     -2.44565633	     -0.16157036	      0.25197844	     -2.44565633	     -0.11239805	      0.25197844	     -2.01406992	     -0.09132280	      0.21133274	     -1.87020778	     -0.05619411	      0.16053081	     -1.72634564	     -0.70246570	      1.17234125	    -12.80188876	      0.00000000	      0.00000000	     11.77251153	     -0.30925518	     11.68592593	      3.55602344	    -18.64807009	     30.73517327	    102.95698374	     84.95763572	     -2.61846298	     13.09832779	    -14.11751841	    -13.74690175	     16.91074471	     96.30020905	     89.30089454	    -12.45905324	     -8.04439879
      5.36666667	      0.46341883	     -4.72177397	     94.99234948	      0.21808739	      0.99112557	      0.27678995	      4.44250727	      0.14748048	    -27.33123445	      5.93027710	      0.10350286	     14.17746396	      7.77998490	      0.00000000	      3.43301705	     -0.26209920	      9.72660071	      0.77573913	      0.01353920	     14.54258770	     -6.45745440	      0.00000000	     -0.07855511	      0.11373198	     -2.28000703	     -0.14588469	      0.15126353	     -2.42250747	     -0.12905819	      0.27652793	     -2.42250747	     -0.08978063	      0.27652793	     -1.99500615	     -0.07294627	      0.23192225	     -1.85250571	     -0.04488639	      0.17617083	     -1.71000527	     -0.56111127	      1.28655888	    -12.68071509	      0.00000000	      0.00000000	     11.65716675	     -0.32059037	     12.06276606	      4.34876571	    -17.66680940	     29.30286542	    105.02109228	     84.39006193	     -2.92741681	     12.62259135	    -13.88826946	    -13.60636770	     15.97480625	     98.24496900	     89.15798639	    -12.59104665	     -8.21258072
